<?xml version="1.0" encoding="UTF-8"?>
<svg version="1.1" xmlns="http://www.w3.org/2000/svg" width="97" height="159">
    <path
        d="M0 0 C2.759434 1.379717 3.00339902 3.31497828 4.12060547 6.05664062 C5.54802096 9.21106241 7.5311932 11.96522702 9.5625 14.75 C9.99796143 15.35344238 10.43342285 15.95688477 10.88208008 16.57861328 C15.18946908 22.44086843 20.01603071 27.70347671 25 33 C26.75953103 34.9840737 28.49632213 36.98593825 30.23046875 38.9921875 C31.50174862 40.43465517 32.79938304 41.85405433 34.11328125 43.2578125 C48.46832992 58.67895286 58.5172242 75.64978481 57.91015625 97.1875 C56.58273504 108.40346349 50.82458366 118.98457284 43 127 C42.01 126.505 42.01 126.505 41 126 C41.0309375 124.83726563 41.061875 123.67453125 41.09375 122.4765625 C41.05833208 102.33262122 29.07971289 86.09874206 15.45019531 72.44775391 C10.42452971 67.57065376 5.14422994 63.06293118 -0.375 58.75 C-6.32826811 54.05809849 -12.29039703 48.70027785 -14 41 C-15.69945916 25.36917196 -9.43755901 12.16269003 0 0 Z "
        fill="#D90267" transform="translate(21,0)" />
    <path
        d="M0 0 C2 3 2 3 3.05078125 4.98828125 C6.1137685 10.63062619 9.78431959 15.13912845 14.1875 19.75 C27.13930479 33.33332833 38.83410198 46.27638602 38.421875 66.015625 C37.97724215 72.68511776 34.74883623 78.80780309 30.42578125 83.828125 C29 85 29 85 27 85 C26.92523438 84.20078125 26.85046875 83.4015625 26.7734375 82.578125 C25.12831083 68.83647869 19.63584282 59.72051631 10 50 C9.10087891 49.04480469 9.10087891 49.04480469 8.18359375 48.0703125 C5.10064535 44.85145687 1.92342943 42.17792034 -1.6875 39.5625 C-5.96808272 36.2899726 -8.4827317 33.20493365 -10 28 C-11.38671958 17.4262632 -6.12171266 8.26431209 0 0 Z "
        fill="#D90267" transform="translate(23,74)" />
    <path d="" fill="#D70068" transform="translate(0,0)" />
</svg>